<svg width="180" height="55" viewBox="0 0 180 55" fill="none" xmlns="http://www.w3.org/2000/svg">
<path d="M169.334 45.5258H179.243L164.528 18.0332L149.812 45.5258H159.719L164.528 54.5098L169.334 45.5258Z" fill="#4F565C"/>
<path d="M149.812 14.562L159.501 11.0918L163.709 14.562L159.501 18.0321L149.812 14.562Z" fill="#4F565C"/>
<path d="M179.243 14.562L169.555 18.0321L165.344 14.562L169.555 11.0918L179.243 14.562Z" fill="#4F565C"/>
<path d="M164.529 0L168.003 9.67744L164.529 13.8835L161.055 9.67744L164.529 0Z" fill="#4F565C"/>
<path d="M3.67241 29.5213C4.02662 29.5213 4.36666 29.4959 4.68686 29.4449C5.00707 29.394 5.29326 29.3034 5.54546 29.1704C5.79765 29.0402 5.99884 28.859 6.14619 28.6297C6.29638 28.4005 6.37005 28.1033 6.37005 27.7381C6.37005 27.3843 6.29638 27.0956 6.14619 26.872C5.99601 26.6484 5.80049 26.4757 5.55396 26.3484C5.30743 26.221 5.0269 26.1389 4.71236 26.0993C4.39783 26.0596 4.07479 26.0398 3.74326 26.0398H2.16491V29.5213H3.67241ZM0 24.2227H3.96711C4.66419 24.2227 5.29326 24.2849 5.85433 24.4123C6.41539 24.5397 6.89428 24.7435 7.29666 25.0293C7.6962 25.3152 8.00507 25.6804 8.22326 26.1276C8.44145 26.572 8.54913 27.1098 8.54913 27.741C8.54913 28.4146 8.42162 28.9807 8.17226 29.4392C7.92006 29.8978 7.58002 30.2657 7.14931 30.546C6.72143 30.8262 6.21987 31.03 5.64747 31.1545C5.07507 31.2791 4.46867 31.3442 3.82827 31.3442H2.16208V36.3683H0V24.2227Z" fill="#4F565C"/>
<path d="M24.1641 26.5352H30.6815V28.0636H25.9124V30.5629H30.4321V32.0347H25.9124V34.8086H30.9308V36.3654H24.1641V26.5352Z" fill="#4F565C"/>
<path d="M47.1108 30.7696C47.3601 30.7696 47.6095 30.7498 47.8617 30.713C48.1111 30.6762 48.3349 30.6054 48.5361 30.5064C48.7345 30.4045 48.8988 30.2573 49.0292 30.0676C49.1595 29.878 49.2247 29.6346 49.2247 29.3402C49.2247 29.0713 49.1652 28.8533 49.0433 28.6807C48.9243 28.508 48.7713 28.3722 48.5843 28.2703C48.4001 28.1684 48.1876 28.0976 47.9524 28.0608C47.7172 28.024 47.4877 28.0042 47.2638 28.0042H45.6798V30.7668H47.1108V30.7696ZM43.9258 26.5352H47.346C47.8079 26.5352 48.2584 26.5833 48.6948 26.6823C49.1312 26.7786 49.5165 26.9399 49.8566 27.1607C50.1938 27.3815 50.4658 27.673 50.6698 28.0353C50.8739 28.3976 50.9759 28.8364 50.9759 29.3543C50.9759 30.0676 50.7747 30.6479 50.3695 31.0951C49.9671 31.5452 49.4174 31.848 48.7231 32.0037L51.3499 36.3627H49.236L46.9578 32.199H45.677V36.3627H43.9258V26.5352Z" fill="#4F565C"/>
<path d="M63.957 26.5352H70.4744V28.0636H65.7082V30.5629H70.2251V32.0347H65.7082V34.8086H70.7266V36.3654H63.957V26.5352Z" fill="#4F565C"/>
<path d="M83.7266 26.5352H86.0473L90.618 33.8944H90.6463V26.5352H92.3975V36.3654H90.1731L85.5033 28.7712H85.4749V36.3654H83.7266V26.5352Z" fill="#4F565C"/>
<path d="M112.956 28.8391C112.695 28.4882 112.358 28.2306 111.942 28.0692C111.525 27.9079 111.117 27.8258 110.718 27.8258C110.207 27.8258 109.746 27.9192 109.329 28.1032C108.912 28.2872 108.553 28.5419 108.252 28.8674C107.952 29.193 107.72 29.5722 107.558 30.0053C107.396 30.4412 107.314 30.9139 107.314 31.4206C107.314 31.9555 107.394 32.448 107.549 32.8924C107.708 33.3368 107.932 33.7189 108.224 34.0388C108.516 34.3586 108.864 34.6049 109.272 34.7804C109.68 34.9559 110.139 35.0436 110.649 35.0436C111.177 35.0436 111.644 34.9389 112.052 34.7322C112.46 34.5228 112.789 34.2482 113.038 33.9057L114.441 34.8908C114.005 35.437 113.472 35.8588 112.843 36.1616C112.214 36.4617 111.477 36.6117 110.632 36.6117C109.865 36.6117 109.156 36.4843 108.513 36.2296C107.87 35.9748 107.317 35.6182 106.852 35.1596C106.391 34.7011 106.028 34.1548 105.77 33.5208C105.509 32.8868 105.379 32.1848 105.379 31.4177C105.379 30.6308 105.515 29.9204 105.79 29.2864C106.062 28.6523 106.439 28.1145 106.915 27.6702C107.391 27.2258 107.955 26.8833 108.604 26.6427C109.253 26.4021 109.955 26.2832 110.715 26.2832C111.029 26.2832 111.358 26.3143 111.701 26.3738C112.044 26.4332 112.372 26.5266 112.687 26.6512C113.001 26.7757 113.299 26.9314 113.577 27.1154C113.854 27.2994 114.092 27.523 114.285 27.7805L112.956 28.8391Z" fill="#4F565C"/>
<path d="M128.084 31.4245C128.084 31.9509 128.166 32.4349 128.328 32.8765C128.489 33.3152 128.721 33.6973 129.022 34.0228C129.322 34.3455 129.679 34.6003 130.093 34.7786C130.507 34.9597 130.96 35.0503 131.462 35.0503C131.963 35.0503 132.422 34.9597 132.839 34.7786C133.255 34.5974 133.615 34.3455 133.916 34.0228C134.216 33.7002 134.448 33.3181 134.61 32.8765C134.771 32.4378 134.854 31.9538 134.854 31.4245C134.854 30.915 134.771 30.4423 134.61 30.0092C134.448 29.5733 134.219 29.194 133.921 28.8713C133.624 28.5487 133.27 28.2939 132.85 28.1071C132.434 27.9231 131.969 27.8297 131.462 27.8297C130.952 27.8297 130.49 27.9231 130.079 28.1071C129.665 28.2911 129.311 28.5458 129.016 28.8713C128.719 29.1969 128.489 29.5761 128.328 30.0092C128.163 30.4423 128.084 30.915 128.084 31.4245ZM126.18 31.4245C126.18 30.6376 126.31 29.9271 126.576 29.2931C126.84 28.6591 127.205 28.1213 127.676 27.6769C128.143 27.2325 128.699 26.89 129.345 26.6494C129.988 26.4088 130.691 26.2871 131.45 26.2871C132.218 26.2871 132.927 26.4088 133.576 26.6494C134.224 26.89 134.786 27.2325 135.256 27.6769C135.729 28.1213 136.098 28.6591 136.361 29.2931C136.625 29.9271 136.758 30.6376 136.758 31.4245C136.758 32.1915 136.627 32.8935 136.361 33.5275C136.098 34.1615 135.729 34.7078 135.256 35.1664C134.783 35.6249 134.222 35.9815 133.576 36.2363C132.927 36.491 132.218 36.6184 131.45 36.6184C130.691 36.6184 129.988 36.491 129.345 36.2363C128.702 35.9815 128.143 35.6249 127.676 35.1664C127.208 34.7078 126.843 34.1615 126.576 33.5275C126.31 32.8935 126.18 32.1915 126.18 31.4245Z" fill="#4F565C"/>
</svg>
